<?xml version="1.0" standalone="no"?>
<!DOCTYPE svg PUBLIC "-//W3C//DTD SVG 20010904//EN"
 "http://www.w3.org/TR/2001/REC-SVG-20010904/DTD/svg10.dtd">
<svg version="1.0" xmlns="http://www.w3.org/2000/svg"
 width="600.000000pt" height="600.000000pt" viewBox="0 0 600.000000 600.000000"
 preserveAspectRatio="xMidYMid meet">
<metadata>
Created by potrace 1.16, written by Peter Selinger 2001-2019
</metadata>
<g transform="translate(0.000000,600.000000) scale(0.100000,-0.100000)"
fill="#000000" stroke="none">
<path d="M2480 3849 c-25 -4 -256 -8 -513 -7 -335 1 -471 -2 -479 -10 -14 -14
-2 -19 73 -25 65 -6 113 -28 131 -60 10 -16 14 -102 16 -325 3 -278 5 -303 20
-298 46 13 215 46 237 46 l25 0 2 278 3 277 90 3 c50 2 140 -1 201 -6 161 -14
199 -39 211 -141 4 -32 11 -51 19 -51 15 0 20 28 29 145 3 44 9 104 12 133 6
58 9 57 -77 41z"/>
<path d="M2624 3829 c-11 -19 10 -29 62 -29 68 0 117 -20 141 -56 16 -25 18
-56 21 -261 l4 -233 139 0 139 0 0 218 c0 120 5 234 11 255 13 47 45 68 117
76 41 4 57 10 57 21 0 13 -45 15 -343 16 -188 1 -345 -2 -348 -7z"/>
<path d="M3794 3828 c-11 -18 10 -26 78 -30 79 -5 117 -27 135 -79 8 -23 12
-119 12 -289 l1 -256 123 -23 c67 -13 130 -26 140 -28 16 -4 17 14 17 272 0
300 7 356 47 382 13 9 49 18 81 22 41 4 57 10 57 21 0 13 -45 15 -343 16 -206
1 -345 -3 -348 -8z"/>
<path d="M2690 3143 c-631 -25 -1263 -161 -1549 -333 -70 -42 -161 -110 -147
-110 2 0 59 16 127 35 100 29 372 88 553 120 l38 6 -5 -278 c-3 -153 -10 -296
-15 -317 -16 -59 -39 -77 -111 -83 -42 -4 -61 -10 -61 -19 0 -8 3 -14 8 -14 4
0 237 -3 519 -6 l512 -5 16 24 c15 24 44 205 45 280 0 30 -3 38 -16 35 -11 -2
-23 -25 -35 -68 -21 -76 -63 -122 -131 -141 -56 -16 -294 -15 -345 1 -95 31
-105 70 -101 390 l3 235 115 11 c177 18 471 34 614 34 l129 0 -6 -322 c-7
-415 -11 -431 -126 -444 -42 -4 -61 -11 -61 -20 0 -12 58 -14 357 -12 256 2
357 6 360 14 3 8 -24 14 -79 19 -160 13 -160 13 -166 439 l-5 329 239 -6 c224
-6 612 -31 643 -43 12 -4 13 -51 8 -299 -4 -168 -11 -313 -18 -340 -14 -56
-35 -71 -111 -80 -40 -5 -58 -12 -58 -21 0 -12 57 -14 357 -12 250 2 357 6
360 14 2 7 -29 15 -87 21 -101 12 -123 24 -141 82 -6 21 -13 155 -16 318 l-5
283 33 -6 c193 -35 449 -90 548 -119 68 -19 125 -35 128 -35 3 0 -19 20 -49
45 -65 55 -238 142 -374 189 -463 158 -1178 237 -1894 209z"/>
</g>
</svg>
